<?xml version="1.0" encoding="UTF-8"?>
<svg id="Layer_1" xmlns="http://www.w3.org/2000/svg" version="1.1" viewBox="0 0 272 280">
  <!-- Generator: Adobe Illustrator 29.1.0, SVG Export Plug-In . SVG Version: 2.1.0 Build 142)  -->
  <defs>
    <style>
      .st0 {
        fill: #FFFFFF;
      }

      .st1 {
        fill: #FFFFFF;
      }
    </style>
  </defs>
  <polygon class="st0" points="237.42 103.58 213.99 103.58 136.44 45.78 59.62 103.58 34.58 103.58 123.93 36.47 135.85 27.51 148.32 36.84 237.42 103.58"/>
  <g>
    <rect class="st0" x="121.86" y="73.91" width="13.19" height="12.53"/>
    <rect class="st0" x="138.02" y="74.24" width="13.19" height="12.53"/>
    <rect class="st0" x="121.86" y="90.39" width="13.19" height="12.53"/>
    <rect class="st0" x="138.02" y="90.72" width="13.19" height="12.53"/>
  </g>
  <g>
    <polygon class="st0" points="69.83 223.67 62.54 240.92 55.38 223.67 49.1 223.67 61.15 252.49 63.86 252.49 76.11 223.67 69.83 223.67"/>
    <path class="st0" d="M89.44,234.24c-1.29-.74-2.75-1.11-4.37-1.11-2.6,0-4.86.96-6.71,2.85-1.85,1.88-2.78,4.17-2.78,6.8s.93,4.92,2.76,6.82c1.85,1.92,4.14,2.89,6.82,2.89,1.53,0,2.96-.39,4.29-1.17v.65h5.21v-18.44h-5.21v.71ZM88.29,239.59c.86.88,1.27,1.93,1.27,3.23s-.42,2.42-1.29,3.28c-.87.86-1.87,1.29-3.07,1.29s-2.19-.44-3.05-1.33c-.88-.92-1.31-1.97-1.31-3.21s.42-2.3,1.29-3.22c.85-.9,1.83-1.32,3.07-1.32s2.24.42,3.09,1.29Z"/>
    <rect class="st0" x="100.4" y="222.93" width="5.67" height="28.93"/>
    <path class="st0" d="M122.84,240.7c0,2.53-.13,3.43-.21,3.74-.12.46-.35.93-.71,1.4-.35.46-.75.8-1.24,1.05-.47.24-.93.36-1.4.36-.5,0-.9-.07-1.2-.2-.26-.12-.46-.27-.63-.49-.2-.26-.35-.6-.46-1.01-.06-.22-.19-.98-.19-3.19v-8.88h-5.24v9.45c0,2.17.22,3.8.68,5,.5,1.32,1.36,2.4,2.56,3.21,1.19.8,2.54,1.21,4.01,1.21s2.81-.36,4.04-1.06v.66h5.27v-18.47h-5.27v7.22Z"/>
    <polygon class="st0" points="157.66 222.93 148.33 241.89 138.93 222.93 136.09 222.93 131.98 251.86 137.78 251.86 139.75 237.27 146.99 251.86 149.68 251.86 156.82 237.42 158.79 251.86 164.66 251.86 160.51 222.93 157.66 222.93"/>
    <path class="st0" d="M179.96,234.24c-1.29-.74-2.75-1.11-4.37-1.11-2.6,0-4.86.96-6.71,2.85-1.85,1.88-2.78,4.17-2.78,6.8s.93,4.92,2.76,6.82c1.85,1.92,4.14,2.89,6.82,2.89,1.53,0,2.96-.39,4.29-1.17v.65h5.21v-18.44h-5.21v.71ZM175.71,247.39c-1.19,0-2.19-.44-3.05-1.33-.88-.92-1.31-1.97-1.31-3.21s.42-2.3,1.29-3.22c.85-.9,1.83-1.32,3.07-1.32s2.24.42,3.09,1.29c.86.88,1.27,1.93,1.27,3.23s-.42,2.42-1.29,3.28c-.87.86-1.87,1.29-3.07,1.29Z"/>
    <path class="st0" d="M198.27,226.22h-5.4v6.24h-2.86v5.06h2.86v10.53c0,1.39.37,2.48,1.1,3.24.75.78,1.82,1.18,3.2,1.18.58,0,1.33-.08,2.28-.24l1.38-.23v-4.81h-2.56v-9.68h3.29v-5.06h-3.29v-6.24Z"/>
    <path class="st0" d="M213.13,247.38c-1.13,0-2.02-.38-2.82-1.18-.45-.45-.77-1-.98-2.28h13.46l-.04-1.03c-.07-2.97-1.02-5.38-2.83-7.15-1.81-1.78-4.07-2.68-6.71-2.68s-4.94.97-6.76,2.89c-1.79,1.9-2.7,4.19-2.7,6.84s.9,4.93,2.68,6.82c1.81,1.91,4.12,2.88,6.87,2.88,3.75,0,6.74-1.84,8.65-5.32l-4.49-2.54c-1,1.88-2.37,2.76-4.33,2.76ZM213.22,238.25c1.03,0,1.91.3,2.69.89.18.14.34.29.49.45h-6.22c.9-1.15,2.05-1.35,3.04-1.35Z"/>
  </g>
  <path class="st0" d="M136.9,194.65s.01-.02.02-.03"/>
  <line class="st0" x1="139.08" y1="179.92" x2="139.08" y2="179.92"/>
  <g>
    <path class="st1" d="M103.55,164.25c-12.53,33.63-22.57,56.04-35.09,50.76-12.53-5.28-6.59-35.61-11.21-60.66-2.88-15.62-3.96-20.44-8.24-27.36-2.31-2.97-4.95-4.29-9.23-4.62-6.59,0,.66-7.25,9.23-2.64,8.57,4.62,19.78,18.46,20.44,70.55.44,34.71,18.15,4.44,30.31-30.75,0,0-4.92-10.46-3.6-24.31s3.96-24.4,8.57-24.4,5.93,9.23,2.64,22.42c-3.3,13.19-1.32,27.03,6.59,28.35,7.91,1.32,19.78-.66,32.31-21.76,5.45-9.18,7.41-15.87,7.88-20.49,0,0,6.63-4.56,5.97.05s-14.51,45.5-40.22,50.77c-6.03,1.24-11.59-1.71-16.34-5.92Z"/>
    <g>
      <circle class="st1" cx="80.32" cy="131.93" r="3.3"/>
      <circle class="st1" cx="115.93" cy="176.77" r="3.3"/>
      <circle class="st1" cx="125.16" cy="176.77" r="3.3"/>
      <circle class="st1" cx="171.19" cy="125.65" r="3.3"/>
      <circle class="st1" cx="181.34" cy="127.67" r="3.3"/>
      <circle class="st1" cx="177.38" cy="116.46" r="3.3"/>
      <circle class="st1" cx="206.39" cy="118.44" r="3.3"/>
      <circle class="st1" cx="212.99" cy="112.5" r="3.3"/>
    </g>
    <path class="st1" d="M173.29,158.31s-.73,5.51-3.37,11.01h0c-2.36,4.92-6.23,9.81-12.46,10.75-6.98,1.05-8.33-9.2-8.54-11.44,1.43-3.06,3.35-6.61,5.83-10.01-.98,4.27-.5,12.24,3.07,12.97,1.67.34,7.55.57,15.46-13.28Z"/>
  </g>
  <path class="st0" d="M148.93,168.63c-.03-.28-.03-.43-.03-.43"/>
  <path class="st0" d="M154.83,158.31c-.03.1-.05.2-.07.31"/>
  <path class="st1" d="M233.52,125.1c.02.38.06.76.14,1.14.16.77.27,1.63.3,2.4.29,7.88-1.63,23.89-8.09,38.34-8.03,17.97-13.73,27.42-13.67,34.86,0,5.77,3.96,7.25,6.92,7.25s6-1.12,6.2-1.19c-1.67,4.54-6.02,7.78-11.14,7.78h-.02c-3.88,0-7.35-2.53-8.41-6.26-.52-1.85-.81-3.85-.81-5.94,0-3.34.73-6.45,1.98-9.06,0,0,17.14-38.75,16.48-64.79-.07-2.73-1.63-4.77-3.63-4.95-7.78-.68-30.78,47.32-39.26,55.92-1.45,1.47-2.92,2.76-4.92,2.76-7.3,0-6.35-9.78-5.68-14.04h0c2.64-5.51,3.37-11.02,3.37-11.02,3.3-10.55-.98-12.98-4.69-11.38-5.8,2.45-10.37,6.92-13.85,11.69-2.48,3.4-4.4,6.95-5.83,10.01-2.22,4.77-3.23,8.37-3.23,8.37-1.81,6.87-4.87,12.92-8.78,17.63,0,0-.01.02-.02.03-1.73,2.06-3.18,3.89-5.64,5.38-2.58,1.57-5.55,2.46-8.73,2.46-5.93,0-8.57-2.28-8.57-4.29s1.98-3.63,5.93-3.63c8.14,0,15.26-5.87,19.19-14.65,1.19-2.67,4.87-13.5,5.86-15.68,4.76-10.47,13.35-20.26,24.8-24.89,0,0,.28-.15.81-.36,4.6-1.85,9.87.72,11.02,5.54,0,.04.02.08.03.12.26,1.17.28,2.38.14,3.57,0,0-1.85,14.04-1.89,16.93-.03,1.83.3,2.52,1.58,2.97,4.94.66,21.66-29.96,32.48-45.81,2.6-3.81,6.65-6.31,10.1-6.31,5.33,0,9.25,3.87,9.52,9.1Z"/>
</svg>